<svg width="21" height="20" viewBox="0 0 21 20" fill="none" xmlns="http://www.w3.org/2000/svg">
<path d="M10.3335 5.50004C9.44352 5.50004 8.57349 5.76396 7.83347 6.25843C7.09345 6.7529 6.51668 7.4557 6.17608 8.27797C5.83549 9.10024 5.74637 10.005 5.92001 10.8779C6.09364 11.7509 6.52222 12.5527 7.15156 13.182C7.7809 13.8114 8.58272 14.2399 9.45563 14.4136C10.3285 14.5872 11.2333 14.4981 12.0556 14.1575C12.8779 13.8169 13.5807 13.2401 14.0752 12.5001C14.5696 11.7601 14.8335 10.8901 14.8335 10C14.8323 8.80695 14.3578 7.66308 13.5142 6.81943C12.6705 5.97579 11.5266 5.50128 10.3335 5.50004ZM10.3335 13C9.7402 13 9.16018 12.8241 8.66683 12.4945C8.17348 12.1648 7.78896 11.6963 7.5619 11.1481C7.33484 10.5999 7.27543 9.99672 7.39118 9.41477C7.50694 8.83283 7.79266 8.29828 8.21222 7.87872C8.63178 7.45917 9.16633 7.17344 9.74827 7.05769C10.3302 6.94193 10.9334 7.00134 11.4816 7.2284C12.0298 7.45547 12.4983 7.83999 12.8279 8.33333C13.1576 8.82668 13.3335 9.4067 13.3335 10C13.3335 10.7957 13.0175 11.5588 12.4549 12.1214C11.8923 12.684 11.1292 13 10.3335 13ZM18.5835 10.2025C18.5873 10.0675 18.5873 9.93254 18.5835 9.79754L19.9823 8.05004C20.0556 7.95829 20.1064 7.8506 20.1305 7.73563C20.1546 7.62067 20.1514 7.50165 20.121 7.38817C19.8917 6.52623 19.5487 5.69865 19.101 4.92723C19.0424 4.82628 18.961 4.7404 18.8634 4.67644C18.7657 4.61248 18.6545 4.57219 18.5385 4.55879L16.3148 4.31129C16.2223 4.21379 16.1285 4.12004 16.0335 4.03004L15.771 1.80067C15.7575 1.68462 15.7171 1.57333 15.653 1.47567C15.5889 1.37801 15.5028 1.29668 15.4017 1.23817C14.6299 0.791306 13.8024 0.448637 12.9407 0.219105C12.8272 0.188915 12.7081 0.185827 12.5931 0.210091C12.4782 0.234354 12.3705 0.28529 12.2789 0.358793L10.536 1.75004C10.401 1.75004 10.266 1.75004 10.131 1.75004L8.38354 0.354105C8.29179 0.280763 8.18409 0.229997 8.06913 0.205897C7.95416 0.181797 7.83515 0.185037 7.72166 0.215355C6.85987 0.445068 6.03234 0.788058 5.26073 1.23536C5.15977 1.29397 5.0739 1.37535 5.00994 1.473C4.94597 1.57065 4.90569 1.68189 4.89229 1.79786L4.64479 4.02536C4.54729 4.11848 4.45354 4.21223 4.36354 4.30661L2.13416 4.56254C2.01811 4.57605 1.90682 4.61647 1.80916 4.6806C1.7115 4.74473 1.63017 4.83079 1.57166 4.93192C1.1248 5.70363 0.782134 6.53114 0.552601 7.39286C0.522411 7.50641 0.519323 7.62547 0.543587 7.74044C0.56785 7.8554 0.618786 7.96306 0.692289 8.05473L2.08354 9.79754C2.08354 9.93254 2.08354 10.0675 2.08354 10.2025L0.687601 11.95C0.614259 12.0418 0.563493 12.1495 0.539393 12.2645C0.515293 12.3794 0.518533 12.4984 0.548851 12.6119C0.778154 13.4739 1.12117 14.3014 1.56885 15.0729C1.62747 15.1738 1.70884 15.2597 1.8065 15.3236C1.90415 15.3876 2.01539 15.4279 2.13135 15.4413L4.3551 15.6888C4.44823 15.7863 4.54198 15.88 4.63635 15.97L4.89604 18.1994C4.90954 18.3155 4.94997 18.4268 5.0141 18.5244C5.07823 18.6221 5.16429 18.7034 5.26541 18.7619C6.03713 19.2088 6.86464 19.5515 7.72635 19.781C7.83991 19.8112 7.95897 19.8143 8.07393 19.79C8.1889 19.7657 8.29656 19.7148 8.38823 19.6413L10.131 18.25C10.266 18.2538 10.401 18.2538 10.536 18.25L12.2835 19.6488C12.3753 19.7221 12.483 19.7729 12.598 19.797C12.7129 19.8211 12.8319 19.8179 12.9454 19.7875C13.8074 19.5582 14.6349 19.2152 15.4064 18.7675C15.5073 18.7089 15.5932 18.6276 15.6571 18.5299C15.7211 18.4322 15.7614 18.321 15.7748 18.205L16.0223 15.9813C16.1198 15.8888 16.2135 15.795 16.3035 15.7L18.5329 15.4375C18.649 15.424 18.7603 15.3836 18.8579 15.3195C18.9556 15.2554 19.0369 15.1693 19.0954 15.0682C19.5423 14.2965 19.8849 13.4689 20.1145 12.6072C20.1447 12.4937 20.1478 12.3746 20.1235 12.2597C20.0992 12.1447 20.0483 12.037 19.9748 11.9454L18.5835 10.2025ZM17.0742 9.59317C17.0901 9.86419 17.0901 10.1359 17.0742 10.4069C17.063 10.5925 17.1211 10.7756 17.2373 10.9207L18.5676 12.5829C18.415 13.068 18.2195 13.5386 17.9835 13.9891L15.8648 14.2291C15.6803 14.2496 15.5099 14.3378 15.3867 14.4766C15.2062 14.6796 15.014 14.8718 14.811 15.0522C14.6722 15.1755 14.584 15.3458 14.5635 15.5304L14.3282 17.6472C13.8778 17.8833 13.4071 18.0788 12.922 18.2313L11.2589 16.901C11.1258 16.7946 10.9604 16.7368 10.7901 16.7369H10.7451C10.4741 16.7529 10.2024 16.7529 9.93135 16.7369C9.7458 16.7257 9.56272 16.7839 9.4176 16.9L7.75073 18.2313C7.2656 18.0786 6.795 17.8832 6.34448 17.6472L6.10448 15.5313C6.084 15.3468 5.99581 15.1764 5.85698 15.0532C5.65402 14.8727 5.46181 14.6805 5.28135 14.4775C5.1581 14.3387 4.98774 14.2505 4.80323 14.23L2.68635 13.9938C2.45028 13.5433 2.25482 13.0727 2.10229 12.5875L3.4326 10.9244C3.54876 10.7793 3.6069 10.5962 3.59573 10.4107C3.57979 10.1397 3.57979 9.86793 3.59573 9.59692C3.6069 9.41137 3.54876 9.22829 3.4326 9.08317L2.10229 7.41723C2.25494 6.93211 2.45039 6.4615 2.68635 6.01098L4.80229 5.77098C4.9868 5.7505 5.15716 5.66231 5.28041 5.52348C5.46087 5.32052 5.65308 5.12832 5.85604 4.94786C5.99542 4.82452 6.08397 4.65377 6.10448 4.46879L6.33979 2.35286C6.79026 2.11679 7.26087 1.92132 7.74604 1.76879L9.40916 3.09911C9.55428 3.21527 9.73737 3.2734 9.92292 3.26223C10.1939 3.24629 10.4656 3.24629 10.7367 3.26223C10.9222 3.2734 11.1053 3.21527 11.2504 3.09911L12.9164 1.76879C13.4015 1.92144 13.8721 2.1169 14.3226 2.35286L14.5626 4.46879C14.5831 4.65331 14.6713 4.82367 14.8101 4.94692C15.0131 5.12738 15.2053 5.31958 15.3857 5.52254C15.509 5.66138 15.6793 5.74956 15.8639 5.77004L17.9807 6.00536C18.2168 6.45583 18.4123 6.92644 18.5648 7.41161L17.2345 9.07473C17.1172 9.22107 17.059 9.40604 17.0714 9.59317H17.0742Z" fill="white"/>
</svg>
