<svg width="20" height="18" viewBox="0 0 20 18" fill="none" xmlns="http://www.w3.org/2000/svg">
<path d="M17.2806 3.78062L3.78062 17.2806C3.63989 17.4214 3.44902 17.5004 3.25 17.5004C3.05098 17.5004 2.86011 17.4214 2.71938 17.2806C2.57864 17.1399 2.49958 16.949 2.49958 16.75C2.49958 16.551 2.57864 16.3601 2.71938 16.2194L16.2194 2.71938C16.3601 2.57864 16.551 2.49958 16.75 2.49958C16.949 2.49958 17.1399 2.57864 17.2806 2.71938C17.4214 2.86011 17.5004 3.05098 17.5004 3.25C17.5004 3.44902 17.4214 3.63989 17.2806 3.78062ZM4 8.5C4 8.69891 4.07902 8.88968 4.21967 9.03033C4.36032 9.17098 4.55109 9.25 4.75 9.25C4.94891 9.25 5.13968 9.17098 5.28033 9.03033C5.42098 8.88968 5.5 8.69891 5.5 8.5V5.5H8.5C8.69891 5.5 8.88968 5.42098 9.03033 5.28033C9.17098 5.13968 9.25 4.94891 9.25 4.75C9.25 4.55109 9.17098 4.36032 9.03033 4.21967C8.88968 4.07902 8.69891 4 8.5 4H5.5V1C5.5 0.801088 5.42098 0.610322 5.28033 0.46967C5.13968 0.329018 4.94891 0.25 4.75 0.25C4.55109 0.25 4.36032 0.329018 4.21967 0.46967C4.07902 0.610322 4 0.801088 4 1V4H1C0.801088 4 0.610322 4.07902 0.46967 4.21967C0.329018 4.36032 0.25 4.55109 0.25 4.75C0.25 4.94891 0.329018 5.13968 0.46967 5.28033C0.610322 5.42098 0.801088 5.5 1 5.5H4V8.5ZM19 14.5H11.5C11.3011 14.5 11.1103 14.579 10.9697 14.7197C10.829 14.8603 10.75 15.0511 10.75 15.25C10.75 15.4489 10.829 15.6397 10.9697 15.7803C11.1103 15.921 11.3011 16 11.5 16H19C19.1989 16 19.3897 15.921 19.5303 15.7803C19.671 15.6397 19.75 15.4489 19.75 15.25C19.75 15.0511 19.671 14.8603 19.5303 14.7197C19.3897 14.579 19.1989 14.5 19 14.5Z" fill="white"/>
</svg>
