<svg width="25" height="24" viewBox="0 0 25 24" fill="none" xmlns="http://www.w3.org/2000/svg">
<g clip-path="url(#clip0_70_2731)">
<path d="M11.6591 14.805C12.6643 14.1358 13.4274 13.1609 13.8357 12.0244C14.244 10.8879 14.2756 9.65024 13.9261 8.49437C13.5765 7.3385 12.8643 6.32581 11.8946 5.60605C10.925 4.88629 9.74949 4.49768 8.54192 4.49768C7.33434 4.49768 6.15883 4.88629 5.1892 5.60605C4.21958 6.32581 3.50732 7.3385 3.15775 8.49437C2.80819 9.65024 2.83988 10.8879 3.24813 12.0244C3.65639 13.1609 4.41954 14.1358 5.42473 14.805C3.60644 15.4751 2.05358 16.7152 0.997854 18.3403C0.942369 18.4227 0.903829 18.5154 0.884474 18.6129C0.865119 18.7104 0.865336 18.8108 0.885112 18.9082C0.904887 19.0056 0.943827 19.0981 0.999668 19.1803C1.05551 19.2625 1.12714 19.3328 1.21039 19.3871C1.29364 19.4414 1.38685 19.4787 1.48461 19.4966C1.58237 19.5146 1.68272 19.5129 1.77984 19.4917C1.87695 19.4706 1.96889 19.4303 2.05031 19.3733C2.13173 19.3163 2.201 19.2437 2.2541 19.1597C2.93509 18.1123 3.86694 17.2516 4.96501 16.6558C6.06309 16.0599 7.29261 15.7479 8.54192 15.7479C9.79123 15.7479 11.0207 16.0599 12.1188 16.6558C13.2169 17.2516 14.1487 18.1123 14.8297 19.1597C14.9397 19.3231 15.1097 19.4368 15.3028 19.476C15.4959 19.5152 15.6967 19.4768 15.8617 19.3692C16.0268 19.2615 16.1428 19.0932 16.1848 18.9007C16.2268 18.7082 16.1913 18.5068 16.086 18.3403C15.0303 16.7152 13.4774 15.4751 11.6591 14.805ZM4.41692 10.125C4.41692 9.30911 4.65884 8.51159 5.1121 7.83324C5.56537 7.15488 6.2096 6.62617 6.96335 6.31396C7.71709 6.00175 8.54649 5.92006 9.34666 6.07922C10.1468 6.23839 10.8818 6.63126 11.4587 7.20815C12.0356 7.78504 12.4285 8.52004 12.5877 9.32022C12.7468 10.1204 12.6651 10.9498 12.3529 11.7035C12.0407 12.4573 11.512 13.1015 10.8336 13.5548C10.1553 14.008 9.35776 14.25 8.54192 14.25C7.44828 14.2487 6.39979 13.8137 5.62647 13.0404C4.85315 12.2671 4.41816 11.2186 4.41692 10.125ZM24.1175 19.3781C23.9509 19.4867 23.748 19.5247 23.5534 19.4838C23.3588 19.4428 23.1884 19.3262 23.0797 19.1597C22.3996 18.1116 21.4678 17.2506 20.3695 16.655C19.2712 16.0594 18.0413 15.7483 16.7919 15.75C16.593 15.75 16.4022 15.6709 16.2616 15.5303C16.1209 15.3896 16.0419 15.1989 16.0419 15C16.0419 14.8011 16.1209 14.6103 16.2616 14.4696C16.4022 14.329 16.593 14.25 16.7919 14.25C17.3994 14.2494 17.9992 14.1147 18.5486 13.8554C19.098 13.5961 19.5833 13.2187 19.9699 12.7501C20.3565 12.2815 20.6348 11.7334 20.785 11.1448C20.9352 10.5561 20.9535 9.94162 20.8386 9.3451C20.7238 8.74859 20.4786 8.1848 20.1206 7.69402C19.7626 7.20325 19.3006 6.7976 18.7677 6.50606C18.2348 6.21452 17.644 6.04429 17.0377 6.00752C16.4313 5.97076 15.8243 6.06838 15.26 6.2934C15.168 6.33317 15.069 6.3541 14.9688 6.35495C14.8686 6.35579 14.7692 6.33654 14.6765 6.29833C14.5839 6.26012 14.4998 6.20373 14.4293 6.13248C14.3588 6.06123 14.3033 5.97658 14.2661 5.88352C14.2289 5.79046 14.2107 5.69088 14.2126 5.59067C14.2145 5.49046 14.2365 5.39165 14.2772 5.30007C14.318 5.2085 14.3766 5.12602 14.4498 5.05752C14.523 4.98901 14.6091 4.93586 14.7032 4.90121C15.9945 4.3862 17.4309 4.36767 18.7351 4.84919C20.0393 5.33071 21.119 6.27817 21.7659 7.50879C22.4128 8.73941 22.581 10.166 22.2381 11.5133C21.8952 12.8607 21.0656 14.0333 19.9091 14.805C21.7274 15.4751 23.2803 16.7152 24.336 18.3403C24.4446 18.5069 24.4826 18.7098 24.4417 18.9044C24.4007 19.099 24.2841 19.2694 24.1175 19.3781Z" fill="white"/>
</g>
<defs>
<clipPath id="clip0_70_2731">
<rect width="24" height="24" fill="white" transform="translate(0.666992)"/>
</clipPath>
</defs>
</svg>
