<svg width="23" height="20" viewBox="0 0 23 20" fill="none" xmlns="http://www.w3.org/2000/svg">
<path d="M21.834 18.5H20.334V8C20.334 7.60217 20.1759 7.22064 19.8946 6.93934C19.6133 6.65803 19.2318 6.5 18.834 6.5H12.834V2C12.8342 1.72837 12.7606 1.46179 12.6211 1.22872C12.4816 0.995642 12.2814 0.804819 12.042 0.676614C11.8025 0.54841 11.5327 0.487637 11.2614 0.500781C10.9901 0.513926 10.7274 0.600495 10.5015 0.751249L3.00148 5.75C2.79574 5.88727 2.62713 6.07328 2.51067 6.29148C2.39421 6.50968 2.33351 6.75329 2.33398 7.00062V18.5H0.833984C0.635072 18.5 0.444307 18.579 0.303654 18.7197C0.163002 18.8603 0.0839844 19.0511 0.0839844 19.25C0.0839844 19.4489 0.163002 19.6397 0.303654 19.7803C0.444307 19.921 0.635072 20 0.833984 20H21.834C22.0329 20 22.2237 19.921 22.3643 19.7803C22.505 19.6397 22.584 19.4489 22.584 19.25C22.584 19.0511 22.505 18.8603 22.3643 18.7197C22.2237 18.579 22.0329 18.5 21.834 18.5ZM18.834 8V18.5H12.834V8H18.834ZM3.83398 7.00062L11.334 2V18.5H3.83398V7.00062ZM9.83398 9.5V11C9.83398 11.1989 9.75497 11.3897 9.61431 11.5303C9.47366 11.671 9.2829 11.75 9.08398 11.75C8.88507 11.75 8.69431 11.671 8.55365 11.5303C8.413 11.3897 8.33398 11.1989 8.33398 11V9.5C8.33398 9.30109 8.413 9.11032 8.55365 8.96967C8.69431 8.82902 8.88507 8.75 9.08398 8.75C9.2829 8.75 9.47366 8.82902 9.61431 8.96967C9.75497 9.11032 9.83398 9.30109 9.83398 9.5ZM6.83398 9.5V11C6.83398 11.1989 6.75497 11.3897 6.61431 11.5303C6.47366 11.671 6.2829 11.75 6.08398 11.75C5.88507 11.75 5.69431 11.671 5.55365 11.5303C5.413 11.3897 5.33398 11.1989 5.33398 11V9.5C5.33398 9.30109 5.413 9.11032 5.55365 8.96967C5.69431 8.82902 5.88507 8.75 6.08398 8.75C6.2829 8.75 6.47366 8.82902 6.61431 8.96967C6.75497 9.11032 6.83398 9.30109 6.83398 9.5ZM6.83398 14.75V16.25C6.83398 16.4489 6.75497 16.6397 6.61431 16.7803C6.47366 16.921 6.2829 17 6.08398 17C5.88507 17 5.69431 16.921 5.55365 16.7803C5.413 16.6397 5.33398 16.4489 5.33398 16.25V14.75C5.33398 14.5511 5.413 14.3603 5.55365 14.2197C5.69431 14.079 5.88507 14 6.08398 14C6.2829 14 6.47366 14.079 6.61431 14.2197C6.75497 14.3603 6.83398 14.5511 6.83398 14.75ZM9.83398 14.75V16.25C9.83398 16.4489 9.75497 16.6397 9.61431 16.7803C9.47366 16.921 9.2829 17 9.08398 17C8.88507 17 8.69431 16.921 8.55365 16.7803C8.413 16.6397 8.33398 16.4489 8.33398 16.25V14.75C8.33398 14.5511 8.413 14.3603 8.55365 14.2197C8.69431 14.079 8.88507 14 9.08398 14C9.2829 14 9.47366 14.079 9.61431 14.2197C9.75497 14.3603 9.83398 14.5511 9.83398 14.75Z" fill="white"/>
</svg>
