<svg width="21" height="21" viewBox="0 0 21 21" fill="none" xmlns="http://www.w3.org/2000/svg">
<path d="M20.2426 4.51906C20.1722 4.43481 20.0842 4.36705 19.9847 4.32056C19.8852 4.27407 19.7768 4.24998 19.667 4.25H4.54324L3.97324 1.11594C3.94185 0.943126 3.8508 0.786814 3.71596 0.674254C3.58113 0.561694 3.41107 0.500025 3.23543 0.5H0.916992C0.71808 0.5 0.527314 0.579018 0.386662 0.71967C0.24601 0.860322 0.166992 1.05109 0.166992 1.25C0.166992 1.44891 0.24601 1.63968 0.386662 1.78033C0.527314 1.92098 0.71808 2 0.916992 2H2.60449L5.00074 15.1522C5.07133 15.5422 5.24371 15.9067 5.50043 16.2087C5.1461 16.5397 4.89035 16.9623 4.76155 17.4298C4.63274 17.8972 4.63591 18.3912 4.77071 18.8569C4.9055 19.3226 5.16665 19.7419 5.5252 20.0683C5.88375 20.3947 6.32569 20.6154 6.80201 20.7059C7.27834 20.7965 7.77043 20.7533 8.22373 20.5813C8.67702 20.4092 9.07381 20.115 9.37009 19.7312C9.66638 19.3474 9.85057 18.889 9.90226 18.407C9.95395 17.9249 9.87111 17.4379 9.66293 17H13.9211C13.7533 17.3513 13.6664 17.7357 13.667 18.125C13.667 18.6442 13.8209 19.1517 14.1094 19.5834C14.3978 20.0151 14.8078 20.3515 15.2874 20.5502C15.7671 20.7489 16.2949 20.8008 16.8041 20.6996C17.3133 20.5983 17.781 20.3483 18.1481 19.9812C18.5153 19.614 18.7653 19.1463 18.8666 18.6371C18.9678 18.1279 18.9159 17.6001 18.7172 17.1205C18.5185 16.6408 18.182 16.2308 17.7504 15.9424C17.3187 15.654 16.8112 15.5 16.292 15.5H7.21418C7.03854 15.5 6.86848 15.4383 6.73365 15.3257C6.59881 15.2132 6.50776 15.0569 6.47637 14.8841L6.17918 13.25H17.0542C17.5811 13.2499 18.0913 13.0649 18.4958 12.7272C18.9003 12.3896 19.1734 11.9206 19.2676 11.4022L20.4076 5.13406C20.4269 5.02572 20.4221 4.91447 20.3936 4.80818C20.3651 4.7019 20.3136 4.60319 20.2426 4.51906ZM8.41699 18.125C8.41699 18.3475 8.35101 18.565 8.2274 18.75C8.10378 18.935 7.92808 19.0792 7.72251 19.1644C7.51694 19.2495 7.29074 19.2718 7.07252 19.2284C6.85429 19.185 6.65383 19.0778 6.4965 18.9205C6.33916 18.7632 6.23202 18.5627 6.18861 18.3445C6.1452 18.1262 6.16748 17.9 6.25263 17.6945C6.33778 17.4889 6.48197 17.3132 6.66698 17.1896C6.85198 17.066 7.06949 17 7.29199 17C7.59036 17 7.87651 17.1185 8.08749 17.3295C8.29847 17.5405 8.41699 17.8266 8.41699 18.125ZM17.417 18.125C17.417 18.3475 17.351 18.565 17.2274 18.75C17.1038 18.935 16.9281 19.0792 16.7225 19.1644C16.5169 19.2495 16.2907 19.2718 16.0725 19.2284C15.8543 19.185 15.6538 19.0778 15.4965 18.9205C15.3392 18.7632 15.232 18.5627 15.1886 18.3445C15.1452 18.1262 15.1675 17.9 15.2526 17.6945C15.3378 17.4889 15.482 17.3132 15.667 17.1896C15.852 17.066 16.0695 17 16.292 17C16.5904 17 16.8765 17.1185 17.0875 17.3295C17.2985 17.5405 17.417 17.8266 17.417 18.125ZM17.792 11.1341C17.7605 11.3074 17.6691 11.464 17.5336 11.5766C17.3982 11.6893 17.2275 11.7506 17.0514 11.75H5.90637L4.81605 5.75H18.7679L17.792 11.1341Z" fill="white"/>
</svg>
